<?xml version="1.0" encoding="UTF-8"?>
<svg id="Layer_1" data-name="Layer 1" xmlns="http://www.w3.org/2000/svg" viewBox="0 0 319.53 283.38">
  <path d="m278.15,43.7c-4.13,1.87-7.73,3.5-11.3,5.11-3.26-5.26-6.03-10.52-9.54-15.23-14.1-18.88-41.7-26.29-62.75-17.1-11.64,5.08-17.41,13.5-17.23,24.94.12,7.26,3.4,13.26,9.14,16.9,9.07,5.74,18.65,10.79,28.37,15.38,19.5,9.21,39.86,16.79,58.72,27.12,22.93,12.56,38.66,31.85,43.86,58.29,8.57,43.52-9.41,83.12-47.91,105.63-25.5,14.91-53.2,20.15-82.46,18.28-23.76-1.52-46.4-6.87-66.38-20.4-28.8-19.5-43.67-47.17-46.19-81.55-.63-8.59-.44-17.33.3-25.92.72-8.39,2.62-16.68,4.11-25.65-10.42,0-21.15-.12-31.87.16-1.2.03-2.75,2.12-3.45,3.59-8.44,17.7-16.75,35.46-25.09,53.2-.77,1.65-1.58,3.28-2.4,4.99H.14c9.7-20.68,19.22-40.97,29.07-61.99H0c1.9-4.15,3.26-7.69,5.15-10.91.61-1.04,2.63-1.71,4.03-1.75,7.16-.17,14.34-.31,21.49.02,3.61.17,5.25-1.26,6.69-4.33C54.26,76.37,71.31,40.33,88.21,4.21,89.47,1.53,90.69-.05,93.99,0c3.11.05,4.71,1.05,6.02,3.9,28.18,61.45,56.46,122.85,84.71,184.26.4.88.69,1.81,1.29,3.39-10.38,0-20.29.12-30.18-.16-1.18-.03-2.72-2.06-3.38-3.49-17.37-37.53-34.65-75.11-51.94-112.67-4.72-10.25-9.46-20.48-14.66-31.74-11.65,24.71-22.91,48.6-34.48,73.15h48.5c-6.45,10.79-9.12,21.99-10.96,33.49-9.54,59.6,27.22,108.33,82.93,117.49,28.95,4.76,57.06,2.32,83.28-12.08,41.23-22.63,45.13-75.89,28.46-101.9-7.2-11.23-16.73-20.09-28.4-26.02-17-8.65-34.71-15.88-51.81-24.33-11.42-5.64-23-11.41-33.32-18.78-27.12-19.38-21.19-60.78,6.41-75.77,22.52-12.23,62.55-12.99,84.73,8.31,7.69,7.38,13.47,15.9,16.96,26.65Z"/>
</svg>